<svg width="454" height="402" viewBox="0 0 454 402" fill="none" xmlns="http://www.w3.org/2000/svg">
<path d="M332.308 396.5H117.234C115.845 396.5 114.556 395.78 113.828 394.599L5.59468 218.965C5.20588 218.334 5 217.608 5 216.866V191.099C5 190.38 5.19411 189.674 5.56186 189.055L113.837 6.9557C114.558 5.74312 115.865 5 117.275 5H332.266C333.655 5 334.944 5.71974 335.672 6.90156L447.905 189.035C448.294 189.666 448.5 190.392 448.5 191.133V216.832C448.5 217.595 448.282 218.342 447.871 218.985L335.68 394.653C334.945 395.804 333.674 396.5 332.308 396.5Z" stroke="white" stroke-width="10"/>
<path d="M76.144 210V120.4H93.68V195.152H120.304V210H76.144ZM173.563 210L170.875 195.792H150.651L147.963 210H130.555L147.835 120.4H174.331L190.715 210H173.563ZM160.507 137.04L155.515 166.864L152.699 182.096H168.699L165.755 166.864L160.763 137.04H160.507ZM212.761 120.4H243.481V135.76H218.905L218.521 136.528L239.001 173.904C243.182 181.413 245.273 187.131 245.273 191.056C245.273 199.675 242.414 205.989 236.697 210H202.777V195.152H229.273L229.657 194.384L206.617 153.04C203.289 147.067 201.625 142.203 201.625 138.448C201.625 129.573 205.337 123.557 212.761 120.4ZM260.594 210V120.4H306.546V135.76H278.13V157.136H303.474V171.984H278.13V195.152H307.058V210H260.594ZM323.369 120.4H357.417C362.793 122.192 367.358 125.52 371.113 130.384C374.953 135.163 376.873 141.051 376.873 148.048C376.873 159.483 372.35 167.888 363.305 173.264L376.233 210H358.313L347.433 177.36H340.649V210H323.369V120.4ZM340.649 135.76V163.024H351.657C353.108 162.683 354.686 161.232 356.393 158.672C358.185 156.027 359.081 152.955 359.081 149.456C359.081 145.957 358.313 142.885 356.777 140.24C355.326 137.595 353.876 136.101 352.425 135.76H340.649Z" fill="white"/>
<path d="M97.664 287.864H106.304C108.096 285.624 109.504 282.36 110.528 278.072C111.616 273.784 112.16 269.528 112.16 265.304C112.16 255.256 110.272 247.928 106.496 243.32H97.664V287.864ZM84.608 299V231.8H112.448C121.536 239.864 126.08 250.808 126.08 264.632C126.08 278.392 121.824 289.848 113.312 299H84.608ZM138.345 299V231.8H172.809V243.32H151.497V259.352H170.506V270.488H151.497V287.864H173.194V299H138.345ZM196.275 243.32H181.779V231.8H223.827V243.32H209.331V299H196.275V243.32ZM256.522 299L254.506 288.344H239.338L237.322 299H224.266L237.226 231.8H257.098L269.386 299H256.522ZM246.73 244.28L242.986 266.648L240.874 278.072H252.874L250.666 266.648L246.922 244.28H246.73ZM279.777 299V231.8H292.929V299H279.777ZM306.983 299V231.8H320.135V287.864H340.103V299H306.983ZM356.646 231.8H379.686V243.32H361.254L360.966 243.896L376.326 271.928C379.462 277.56 381.03 281.848 381.03 284.792C381.03 291.256 378.886 295.992 374.598 299H349.158V287.864H369.03L369.318 287.288L352.038 256.28C349.542 251.8 348.294 248.152 348.294 245.336C348.294 238.68 351.078 234.168 356.646 231.8Z" fill="white"/>
<path d="M129 309.991C129 309.991 169.5 350.991 232 350.991C294.5 350.991 334 309.991 334 309.991M334 105.991C295.5 65.9911 205.5 35.9903 129 105.991" stroke="white" stroke-width="10"/>
</svg>
